<?xml version="1.0" encoding="UTF-8"?>
<svg id="_レイヤー_1" data-name="レイヤー 1" xmlns="http://www.w3.org/2000/svg" viewBox="0 0 783.9 260.38">
  <defs>
    <style>
      .cls-1 {
        fill: #a1535b;
      }
    </style>
  </defs>
  <path class="cls-1" d="m218.87,43.87c2.08-1.01,4.18-1.96,6.31-2.86l-1.78.75c3.84-1.61,7.74-3.04,11.71-4.28s7.75-2.42,11.7-2.98l-1.98.27c.76-.09,1.5-.11,2.27-.04l-1.98-.27c.49.08.94.19,1.4.38l-1.78-.75c.22.1.43.21.64.35-.94-.79-1.22-.98-.82-.58.39.42.18.15-.63-.81.12.2.23.41.33.62l-.75-1.78c.38.91.57,1.85.71,2.82l-.27-1.98c.51,4.37.47,8.83-.11,13.19l.27-1.98c-.49,3.46-1.35,6.85-2.71,10.08l.75-1.78c-.46,1.07-.97,2.11-1.54,3.12-.27.48-.55.95-.85,1.41-.21.32-1,1.12-1.04,1.5.01-.12,1.14-1.42.49-.64-.2.23-.39.47-.59.7-.36.42-.74.82-1.13,1.21-.44.44-.89.86-1.35,1.27-.79.71.44-.23.5-.37-.08.2-.93.54-1.11.63l1.78-.75c-.4.16-.76.25-1.18.33l1.98-.27c-.27.03-.55.02-.82-.02l1.98.27c-.27-.04-.53-.12-.78-.23l1.78.75c-.35-.17-2-1.31-.99-.53.93.72.14.11-.09-.08-.28-.22-.56-.45-.84-.67-1-.81-1.99-1.64-2.96-2.49-1.94-1.7-3.82-3.47-5.63-5.31s-3.54-3.75-5.21-5.72c-.74-.88-1.45-1.77-2.17-2.67-.95-1.18.86,1.13.24.32-.17-.23-.35-.46-.52-.69-.43-.57-.85-1.15-1.27-1.73-5.59-7.79-9.86-16.51-16.45-23.57-3.6-3.86-8.2-7.43-13.27-9.09-2.68-.88-5.53-.52-8.04.68-2.06.98-3.43,2.7-4.74,4.5-1.46,2.01-2.69,4.23-3.81,6.44-2.56,5.06-4.59,10.46-5.78,16.02-.65,3.04-1.09,6.15-1.35,9.25-.36,4.25.91,8.55,4.77,10.86s8.11,1.38,12.08.74c2.75-.44,5.46-1.14,8.08-2.09,6.35-2.29,11.98-5.57,17.14-9.92,1.38-1.17,2.18-3.52,2.18-5.26s-.81-4.01-2.18-5.26c-3.18-2.92-7.34-2.69-10.52,0-.42.36-.9.68-1.29,1.06,1.62-1.56.32-.26-.17.09-.91.65-1.84,1.26-2.79,1.84-1.91,1.16-3.9,2.16-5.96,3.03l1.78-.75c-3.62,1.49-7.38,2.53-11.26,3.07l1.98-.27c-1.39.18-2.82.41-4.22.24l1.98.27c-.22-.03-.44-.09-.65-.17l1.78.75c-.66-.33-.44-.11.67.64.75,1.1.95,1.33.62.66l.75,1.78c-.08-.21-.14-.43-.17-.66l.27,1.98c-.24-1.84.12-3.81.36-5.64l-.27,1.98c.73-5.16,2.12-10.17,4.14-14.97l-.75,1.78c.91-2.12,1.93-4.19,3.08-6.2.57-1,1.18-1.99,1.81-2.95.35-.54,1.57-1.79,0-.07.54-.54.32-.4-.67.42.2-.14.42-.25.64-.34l-1.78.75c.25-.1.52-.15.79-.17l-1.98.27h.44c-.66-.08-1.32-.17-1.98-.26.61.08,1.14.25,1.71.48l-1.78-.75c1.08.49,2.13,1.06,3.13,1.69.46.29.91.6,1.35.91.21.15,1.2.91.11.07s.16.15.37.33c1.76,1.5,3.34,3.2,4.81,4.98.2.24.39.48.58.72.6.75-1.19-1.59-.37-.48.3.4.59.8.89,1.2.77,1.07,1.51,2.15,2.24,3.25,1.35,2.05,2.65,4.14,3.95,6.23,6.03,9.63,13.06,18.58,21.62,26.09,1.02.9,2.06,1.78,3.12,2.63,1.46,1.18,2.91,2.53,4.56,3.43,2.47,1.35,5.37,1.81,8.11,1.11,2.39-.61,4.34-2.01,6.18-3.59,4.44-3.82,7.41-9,9.51-14.39,1.96-5.04,2.78-10.57,2.98-15.95.09-2.39.02-4.79-.2-7.18-.36-3.96-1.1-7.87-4.12-10.74-3.73-3.56-8.73-3.67-13.48-2.67-3.28.69-6.54,1.59-9.74,2.58-6.94,2.13-13.71,4.86-20.24,8.03-3.51,1.7-4.73,6.98-2.67,10.18,2.32,3.6,6.42,4.49,10.18,2.67h0Z"/>
  <path class="cls-1" d="m203.22,25.07c3.68-2.56,7.61-4.72,11.73-6.47l-1.78.75c5.21-2.18,10.65-3.68,16.24-4.45l-1.98.27c1.47-.19,2.93-.38,4.42-.26l-1.98-.27c.6.08,1.15.21,1.71.42l-1.78-.75c.28.13.68.46.98.52-1-.81-1.21-.97-.63-.48l.27.26c.26.26.48.59.75.84-.77-1.01-.93-1.21-.49-.59.11.16.21.31.31.47.98,1.52,1.81,3.12,2.53,4.78l-.75-1.78c1.13,2.69,1.9,5.48,2.32,8.36l-.27-1.98c.06.43.11.86.15,1.3.21,2.03.69,3.77,2.18,5.26,1.29,1.29,3.41,2.26,5.26,2.18,3.69-.17,7.87-3.29,7.44-7.44-.53-5.12-1.75-9.74-3.93-14.41s-5.46-9.28-10.6-10.97c-2.43-.8-4.97-.72-7.47-.4s-5.04.68-7.52,1.23c-4.14.91-8.12,2.27-12.01,3.92-4.44,1.87-8.66,4.1-12.62,6.85-1.62,1.12-2.88,2.5-3.42,4.45-.49,1.78-.27,4.15.75,5.73,2.04,3.17,6.76,5.04,10.18,2.67h0Z"/>
  <path class="cls-1" d="m102.03,45.42c18.25-1.82,36.53-3.27,54.84-4.36,5.22-.31,10.44-.59,15.66-.83,3.88-.19,7.63-3.29,7.44-7.44-.17-3.87-3.28-7.64-7.44-7.44-18.32.87-36.62,2.11-54.89,3.72-5.21.46-10.41.95-15.61,1.47-2.02.2-3.78.7-5.26,2.18-1.29,1.29-2.26,3.41-2.18,5.26.17,3.7,3.29,7.85,7.44,7.44h0Z"/>
  <path class="cls-1" d="m103.03,31.25c-4.72-4.09-9.89-7.67-15.56-10.31-6.37-2.97-14.71-6.87-21.38-2.65-5.88,3.71-6.91,10.87-6.84,17.24s.14,13.09.21,19.64c.03,3.14.15,6.3,0,9.43-.01.2-.06,2-.16,2.01.09-.01.29-1.79.02-.24-.07.41-.15.82-.25,1.23-.16.65-.36,1.28-.56,1.92-.4,1.26.11-.3.22-.47-.24.35-.4.84-.6,1.22-.32.6-.67,1.18-1.05,1.74-.17.25-.34.5-.51.75l-.13.18c-.47.63-.36.49.34-.42-.42.24-.84,1.03-1.17,1.41-.5.58-1.01,1.15-1.53,1.71-1.85,2.01-3.74,3.98-5.48,6.09-7.58,9.19-13.16,19.55-17.23,30.73s-6.16,22.15-7.57,33.57c-1.51,12.23-2.21,24.81.34,36.96s9.59,22.97,17.89,32.3c7.59,8.52,15.97,16.57,24.8,23.79,9.63,7.87,19.95,14.55,31.61,18.99,11.91,4.54,24.76,6.27,37.42,7.02,11.36.68,22.8.71,34.17.4s22.3-1.2,33.35-2.86c20.98-3.15,42.12-9.9,59.2-22.83,9.94-7.53,18.14-16.58,25.39-26.7,6.86-9.57,13.09-19.8,17.92-30.55,5.24-11.64,8.95-23.94,9.17-36.8.22-12.8-3.23-25.16-8.18-36.84-4.61-10.89-10.59-21.19-16.82-31.22-5.6-9.02-12.32-18.29-21.73-23.65-4.81-2.74-10.27-4.29-15.82-4.22-3.89.05-7.62,3.39-7.44,7.44s3.27,7.49,7.44,7.44c.59,0,1.18,0,1.78.03.29.02,2.24.24.74.04s.59.14.89.21c.55.13,1.1.28,1.65.45s1.07.36,1.61.56.86.61-.73-.31c.21.12.47.21.69.32,1.03.5,2.04,1.06,3,1.68.44.28.86.57,1.28.87.21.15.42.31.63.46,1.16.83-1.17-.95-.42-.32.92.77,1.83,1.54,2.69,2.37,1.73,1.65,3.32,3.44,4.83,5.29.17.22.35.43.52.65.75.94-.34-.44-.4-.52.32.45.67.89,1,1.33.74,1.01,1.45,2.03,2.15,3.06,1.39,2.05,2.7,4.16,3.99,6.28,2.95,4.88,5.86,9.78,8.58,14.79,1.38,2.54,2.72,5.12,3.98,7.72.61,1.26,1.2,2.53,1.78,3.81.27.6.53,1.2.8,1.8.11.26.48,1.29.11.24-.41-1.16.19.47.28.7,2.1,5.19,3.83,10.55,4.98,16.03.28,1.34.53,2.7.74,4.05.12.79-.23,1.24-.03-.3-.03.25.09.73.12.96.09.81.17,1.61.24,2.42.22,2.76.27,5.53.14,8.29-.06,1.37-.17,2.74-.32,4.11-.03.32-.08.64-.11.96-.12,1.1.3-1.94.04-.3-.11.72-.22,1.43-.35,2.15-.49,2.78-1.14,5.54-1.91,8.25s-1.7,5.42-2.72,8.08c-.23.61-.47,1.22-.72,1.82-.13.33-.24.86-.47,1.13.08-.1.71-1.64.17-.42-.6,1.35-1.2,2.69-1.83,4.02-2.46,5.18-5.26,10.2-8.25,15.1s-5.96,9.46-9.25,13.98c-.43.59-.86,1.17-1.3,1.76-.19.26-.39.52-.58.77-.34.45-.4.97.28-.35-.62,1.2-1.86,2.36-2.73,3.4-1.8,2.17-3.68,4.28-5.64,6.31s-4.01,3.98-6.14,5.83c-.88.76-1.77,1.5-2.67,2.23-.23.18-.45.36-.68.54-.96.77.38-.31.48-.37-.6.38-1.15.87-1.73,1.29-4.04,2.94-8.31,5.56-12.75,7.85-2.21,1.15-4.47,2.21-6.76,3.2-1.65.72,1.47-.6-.19.08-.59.24-1.19.48-1.79.72-1.2.47-2.41.92-3.62,1.35-4.75,1.7-9.61,3.1-14.52,4.27s-9.86,2.1-14.85,2.84c-.65.1-1.31.19-1.97.28-.47.07-1.43.14.66-.09-.29.03-.59.08-.88.11-1.32.17-2.64.33-3.96.47-2.57.28-5.15.52-7.73.72-10.23.8-20.49,1.01-30.75.93-5.82-.04-11.65-.15-17.46-.46-2.97-.16-5.93-.38-8.89-.68-1.43-.14-2.86-.38-4.29-.49.17.01,1.79.26.47.06-.33-.05-.67-.1-1-.15-.83-.12-1.67-.26-2.5-.4-5.81-.98-11.55-2.39-17.1-4.39-1.25-.45-2.48-.97-3.72-1.44,2.01.77.11.03-.39-.19-.72-.32-1.43-.66-2.14-1-2.48-1.2-4.9-2.52-7.26-3.94s-4.67-2.93-6.92-4.53c-1.03-.73-2.05-1.48-3.06-2.24-.32-.24-.63-.48-.94-.72-.78-.59,1.15.9.38.29-.62-.49-1.24-.98-1.86-1.48-4.26-3.45-8.33-7.12-12.3-10.91-3.98-3.81-7.91-7.69-11.64-11.75-1.86-2.02-3.66-4.09-5.36-6.24-1.14-1.43.83,1.11-.27-.35-.42-.56-.84-1.13-1.24-1.7-.81-1.14-1.59-2.3-2.33-3.49-1.4-2.24-2.6-4.57-3.72-6.96-.68-1.45.49,1.27.11.28-.11-.29-.23-.58-.34-.87-.27-.69-.52-1.39-.75-2.1-.48-1.44-.89-2.91-1.25-4.39-.31-1.31-.58-2.64-.8-3.97-.06-.33-.1-.67-.16-1-.23-1.42.02.43.06.47-.3-.31-.23-2.07-.27-2.53-.26-2.97-.35-5.95-.32-8.93.06-5.66.51-11.33,1.16-16.95.07-.6.14-1.2.22-1.81.05-.37.11-.75.14-1.13,0,.12-.27,1.9-.08.62.19-1.35.39-2.71.61-4.05.42-2.55.89-5.09,1.43-7.61,1.11-5.18,2.5-10.3,4.22-15.3.42-1.21.85-2.41,1.31-3.6.24-.63.49-1.26.74-1.89.11-.28.23-.55.34-.83.5-1.23-.51,1.18-.14.33,1.06-2.39,2.16-4.76,3.38-7.07s2.53-4.56,3.94-6.75c.69-1.06,1.4-2.11,2.13-3.15.35-.49.7-.97,1.05-1.45.18-.24.37-.47.54-.72-1.24,1.76-.34.44-.06.09,3.62-4.54,7.94-8.45,11.28-13.22,3.89-5.55,4.87-12.16,4.86-18.79s-.13-12.64-.19-18.96c-.03-2.99-.15-5.99-.08-8.98.01-.49.03-.97.07-1.46.02-.24.06-.49.07-.73-.05,2.07-.23,1.46-.11.89.1-.47.19-.94.32-1.41.08-.28.2-.55.27-.83.2-.82-.88,1.66-.27.69.96-1.5-1.21,1.1-.12.07s-1.54,1.02-.21.22c.75-.46-2.13.67-.53.31-.18.04-1.74.5-.55.16s-.52.99-.53-.08c0,.03,1.12.28,1.19.3,1.3.37,2.58.82,3.84,1.3.44.17,1.32.73,1.76.7-.73.05-1.29-.57-.47-.19.43.2.86.39,1.29.59,2.43,1.15,4.78,2.46,7.04,3.92,1.06.69,2.09,1.43,3.12,2.16s-.25-.2-.37-.3c.24.2.5.39.74.59.62.5,1.22,1.01,1.82,1.52,2.94,2.55,7.67,3.11,10.52,0,2.57-2.8,3.14-7.8,0-10.52h0Z"/>
  <path class="cls-1" d="m133.11,89.52c3.89,0,7.62-3.42,7.44-7.44s-3.27-7.44-7.44-7.44c-3.89,0-7.62,3.42-7.44,7.44s3.27,7.44,7.44,7.44h0Z"/>
  <path class="cls-1" d="m173.59,89.52c3.89,0,7.62-3.42,7.44-7.44s-3.27-7.44-7.44-7.44c-3.89,0-7.62,3.42-7.44,7.44s3.27,7.44,7.44,7.44h0Z"/>
  <path class="cls-1" d="m66.05,105.75c7.07,9.65,15.99,17.65,26.41,23.56,9.87,5.59,20.84,9.43,32.03,11.27,12.31,2.02,24.49,1.89,36.79-.17s24.92-6.48,36.47-12.09c12.93-6.28,24.84-14.42,35.93-23.53,1.39-1.14,2.18-3.54,2.18-5.26,0-1.83-.81-4.01-2.18-5.26s-3.28-2.27-5.26-2.18c-2.08.09-3.66.86-5.26,2.18-.82.67-1.64,1.34-2.47,2-.39.31-.77.61-1.16.92-.22.17-.44.35-.67.52.89-.69,1.11-.86.67-.52-1.63,1.24-3.27,2.47-4.94,3.67-3.22,2.31-6.52,4.52-9.88,6.62-6.84,4.25-13.98,8-21.39,11.14l1.78-.75c-10.09,4.24-20.66,7.29-31.51,8.76l1.98-.27c-8.68,1.13-17.43,1.19-26.11.05l1.98.27c-8.32-1.12-16.47-3.28-24.21-6.53l1.78.75c-6.33-2.68-12.35-6.07-17.84-10.22-1.35-1.02,1.26,1.01.19.15-.29-.23-.58-.46-.86-.69-.67-.54-1.33-1.1-1.98-1.67-1.3-1.13-2.56-2.31-3.78-3.54s-2.39-2.5-3.52-3.81c-.57-.66-1.12-1.33-1.66-2.01-.34-.43-1.08-1.54.25.33-.29-.41-.6-.8-.89-1.2-1.18-1.61-2.45-2.87-4.45-3.42-1.78-.49-4.15-.27-5.73.75-3.1,2-5.13,6.82-2.67,10.18h0Z"/>
  <path class="cls-1" d="m345.76,90.99c3.76,6.51,7.88,12.8,12.35,18.85,1.61,2.17,3.58,3.69,6.43,3.69,2.37,0,5.42-1.36,6.43-3.69,1.97-4.56,3.94-9.12,5.91-13.68.85-1.97,1.63-4.01,2.66-5.89.22-.39.46-.77.69-1.15.44-.62.28-.43-.48.59.16-.2.33-.38.5-.57.18-.18.36-.36.55-.52-1.03.76-1.23.92-.61.5.43-.23.83-.46,1.28-.65l-1.78.75c.68-.26,1.37-.43,2.09-.54l-1.98.27c.99-.11,1.95-.09,2.93.04l-1.98-.27c.99.16,1.94.42,2.88.79l-1.78-.75c.95.41,1.81.91,2.68,1.48s-.45-.43-.55-.43c.14,0,.5.42.61.52.45.4.89.82,1.3,1.26.37.39.73.79,1.09,1.2.18.21.35.41.52.63s.79,1,.05.05-.12-.15.03.06c.16.22.32.44.48.66.36.49.71.99,1.06,1.49,1.75,2.5,4.27,3.97,7.41,3.55,2.73-.37,5.62-2.46,6.19-5.33.44-2.22,1.01-4.4,1.88-6.5l-.75,1.78c.39-.9.83-1.77,1.35-2.61.15-.24.3-.47.46-.7.45-.63.32-.46-.4.5.32-.25.58-.66.87-.94s.67-.55.95-.86c-1.03.78-1.25.94-.64.5.15-.11.3-.21.45-.31.77-.5,1.58-.91,2.42-1.28l-1.78.75c1.26-.5,2.54-.85,3.88-1.04l-1.98.27c1.34-.16,2.67-.16,4.01.02l-1.98-.27c1.08.17,2.12.45,3.14.85l-1.78-.75c.88.37,1.73.81,2.52,1.34,1.57,1.05-.99-.93-.08-.08.31.28.62.56.92.85s.57.61.85.92c.84.92-1.13-1.65-.09-.07.53.8.96,1.64,1.34,2.52l-.75-1.78c.44,1.12.76,2.25.93,3.44.25,1.72,2,3.61,3.42,4.45,1.59.93,3.95,1.33,5.73.75s3.54-1.7,4.45-3.42c1-1.89,1.06-3.64.75-5.73-1.19-8.07-7.88-15.04-15.61-17.26s-17.53.44-22.74,6.93c-3.24,4.03-5.1,8.71-6.1,13.77l13.6-1.78c-3.05-4.35-6.29-8.68-10.96-11.43-5.3-3.13-11.83-3.65-17.4-.97-5.02,2.41-7.24,7.42-9.31,12.22s-4.13,9.57-6.2,14.36h12.85c-4.47-6.04-8.59-12.33-12.35-18.85-1.95-3.37-6.82-4.84-10.18-2.67s-4.75,6.57-2.67,10.18h0Z"/>
  <path class="cls-1" d="m444.41,78.76c3.11-.79,6.24-1.52,9.43-1.98l-1.98.27c3.17-.42,6.35-.55,9.53-.16l-1.98-.27c2.11.3,4.15.84,6.12,1.66l-1.78-.75c.96.42,1.88.88,2.77,1.43.21.13,1.12.93,1.36.91-.12,0-1.41-1.17-.65-.5.23.2.46.39.68.59.35.32.69.66,1.02,1.01.12.13.45.63.59.67-.11-.03-1.08-1.49-.51-.66.61.9,1.14,1.82,1.58,2.82l-.75-1.78c.4.99.67,2,.83,3.06l-.27-1.98c.14,1.15.13,2.29-.02,3.45l.27-1.98c-.17,1.15-.46,2.25-.89,3.32l.75-1.78c-.24.57-.51,1.13-.83,1.66-.16.26-.33.51-.5.77-.67,1.04,1.38-1.49.31-.44-.21.21-.43.43-.64.64-.97,1.02,1.2-.78.58-.4-.57.34-1.09.69-1.7.97l1.78-.75c-.68.28-1.36.49-2.09.61l1.98-.27c-.66.08-1.3.08-1.96,0l1.98.27c-.54-.09-1.03-.23-1.53-.44l1.78.75c-.19-.08-.37-.18-.54-.29,1.03.86,1.34,1.1.91.7-.33-.34,1.07,1.82.38.41l.75,1.78c-.13-.34-.2-.64-.26-1l.27,1.98c-.02-.23-.02-.47,0-.7l-.27,1.98c.06-.36.14-.67.26-1.02l-.75,1.78c.12-.28.25-.55.41-.81.67-1.12-.33.18-.37.44.02-.15,1.24-1.37,1.43-1.35-.04,0-1.48,1.06-.58.48.31-.2.6-.41.91-.61.61-.4,1.23-.79,1.85-1.17,2.44-1.48,4.99-2.76,7.61-3.88l-1.78.75c3.65-1.52,7.43-2.67,11.31-3.44s6.37-5.52,5.2-9.15c-1.31-4.06-5.06-6.01-9.15-5.2-8.23,1.64-16.35,4.98-23.28,9.73-4.85,3.33-9.4,8.85-7.16,15.16s8.74,8.7,14.89,7.44c8.44-1.73,13.75-10.63,13.7-18.8-.06-8.59-5.96-16.28-13.63-19.77-4.81-2.19-9.84-3.26-15.14-3.14s-10.89,1.29-16.17,2.64c-3.77.96-6.42,5.38-5.2,9.15s5.11,6.23,9.15,5.2h0Z"/>
  <path class="cls-1" d="m516.41,63.41c.04,9.83,7.92,17.91,17.23,20.05,4.58,1.05,9.4.89,13.78-.88,4.67-1.89,8.82-4.79,11.99-8.74,3.54-4.41,6.12-9.33,7.67-14.78l-14.62-1.98c.68,13.25,2.38,26.47,5.06,39.47.78,3.82,5.5,6.38,9.15,5.2,4.04-1.31,6.04-5.06,5.2-9.15-1.17-5.7-2.15-11.44-2.92-17.21l.27,1.98c-.89-6.73-1.52-13.5-1.87-20.28-.19-3.72-2.69-6.8-6.45-7.31s-7.14,1.74-8.16,5.33c-.4,1.42-.89,2.81-1.46,4.18l.75-1.78c-.64,1.48-1.36,2.92-2.19,4.3-.42.68-.86,1.35-1.33,2-.99,1.36,1.04-1.23.16-.2-.24.28-.47.56-.71.83-.48.54-.99,1.07-1.52,1.56-.31.29-.62.57-.94.84-1.27,1.07,1.35-.93.24-.16-1.29.89-2.6,1.67-4.04,2.3l1.78-.75c-1.38.56-2.79.98-4.27,1.19l1.98-.27c-1.38.16-2.76.14-4.14-.04l1.98.27c-1.49-.22-2.92-.62-4.31-1.2l1.78.75c-.83-.36-1.63-.77-2.4-1.24-.36-.22-.69-.48-1.04-.71-.65-.42,1.28,1.15.77.58-.17-.18-.4-.34-.59-.51-.3-.28-.59-.57-.87-.87-.14-.15-.27-.31-.4-.46-.65-.71.62.72.6.78.05-.16-.64-.97-.74-1.14-.23-.39-.42-.8-.61-1.21l.75,1.78c-.39-.94-.66-1.91-.81-2.92l.27,1.98c-.06-.52-.09-1.04-.1-1.56-.02-3.89-3.41-7.62-7.44-7.44s-7.46,3.27-7.44,7.44h0Z"/>
  <path class="cls-1" d="m582.03,56.99c1.73,8.5,9.86,14.61,18.15,15.83,4.45.65,8.97.56,13.21-1.13,4.73-1.88,8.87-4.58,12.5-8.18s6.72-7.94,9.43-12.32h-12.85c2.5,4.3,5,8.6,7.5,12.9,1.96,3.37,6.81,4.84,10.18,2.67s4.76-6.58,2.67-10.18c-2.5-4.3-5-8.6-7.5-12.9-2.87-4.93-9.93-4.7-12.85,0-1.04,1.68-2.13,3.34-3.29,4.94-.32.44-1.59,1.91-.03.08-.34.4-.66.83-1,1.24-.59.71-1.2,1.4-1.83,2.07s-1.28,1.31-1.95,1.93c-.38.35-.77.69-1.17,1.03-.2.17-.4.33-.6.49,1-.76,1.2-.92.58-.46-1.59,1.11-3.22,2.1-5,2.88l1.78-.75c-1.58.66-3.18,1.14-4.88,1.38l1.98-.27c-1.59.19-3.16.18-4.75,0l1.98.27c-1.68-.23-3.3-.66-4.87-1.3l1.78.75c-.76-.33-1.5-.69-2.2-1.12-.35-.21-.68-.45-1.02-.67-.8-.53.78.55.79.61-.02-.13-.48-.41-.57-.49-.29-.27-.58-.55-.85-.84-.13-.15-.25-.31-.39-.45-.54-.54,1.01,1.46.62.8-.43-.73-.89-1.41-1.24-2.2l.75,1.78c-.31-.76-.55-1.53-.71-2.33-.78-3.82-5.51-6.38-9.15-5.2-4.05,1.31-6.03,5.06-5.2,9.15h0Z"/>
  <path class="cls-1" d="m644.62,2.17v8.3c-.04,1.02.17,1.98.64,2.87.3.92.81,1.72,1.54,2.39.67.73,1.47,1.24,2.39,1.54.89.47,1.84.68,2.87.64,1.92-.09,3.92-.72,5.26-2.18s2.18-3.25,2.18-5.26V2.17c.04-1.02-.17-1.98-.64-2.87-.3-.92-.81-1.72-1.54-2.39-.67-.73-1.47-1.24-2.39-1.54-.89-.47-1.84-.68-2.87-.64-1.92.09-3.92.72-5.26,2.18s-2.18,3.25-2.18,5.26h0Z"/>
  <path class="cls-1" d="m705.83,19.16c-10.32-3.01-22.18,5.43-21.11,16.59.54,5.58,3.15,10.6,8.08,13.53,3.73,2.21,7.99,2.51,11.92,4.12l-1.78-.75c.51.23,1.01.47,1.48.76,1.17.71-.28-.42-.47-.44.17.01.51.45.62.57.16.16.3.33.45.49.58.62-1.05-1.56-.47-.56.28.49.55.97.77,1.49l-.75-1.78c.29.74.49,1.49.61,2.27l-.27-1.98c.11.9.11,1.78,0,2.68l.27-1.98c-.11.67-.29,1.3-.53,1.94l.75-1.78c-.2.47-.48.89-.7,1.34-.35.69,1.1-1.26.56-.7-.19.2-.37.42-.57.62-.12.11-.44.31-.5.45.06-.13,1.54-1.04.7-.56-.49.28-.96.57-1.47.81l1.78-.75c-.84.35-1.69.59-2.59.73l1.98-.27c-.79.09-1.55.09-2.34,0l1.98.27c-.45-.07-.88-.17-1.31-.29-3.74-1.08-8.27,1.31-9.15,5.2s1.19,8,5.2,9.15c10.22,2.95,21.87-5.34,20.91-16.37-.48-5.54-3.09-10.48-7.93-13.43-3.7-2.25-7.98-2.55-11.91-4.13l1.78.75c-.51-.22-1.01-.46-1.49-.74-.2-.12-.65-.3-.78-.51.12.2,1.49,1.27.59.38-.16-.16-.31-.34-.47-.5-.59-.61,1.04,1.55.44.55-.3-.5-.57-.99-.8-1.52l.75,1.78c-.3-.76-.51-1.52-.65-2.32l.27,1.98c-.12-.92-.13-1.82-.01-2.74l-.27,1.98c.11-.68.28-1.33.53-1.98l-.75,1.78c.2-.48.43-.94.71-1.37.16-.24.69-.96-.08.06-.81,1.07-.09.18.1-.01.1-.1.47-.33.51-.46-.04.14-1.53,1.04-.68.54.5-.29.98-.59,1.51-.83l-1.78.75c.86-.36,1.72-.61,2.64-.75l-1.98.27c.81-.09,1.59-.09,2.39,0l-1.98-.27c.46.07.9.17,1.34.3,3.74,1.09,8.27-1.32,9.15-5.2s-1.2-7.99-5.2-9.15h0Z"/>
  <path class="cls-1" d="m420.63,171.66c14.87-1.81,29.73-3.62,44.6-5.43,2.04-.25,3.75-.67,5.26-2.18,1.29-1.29,2.26-3.41,2.18-5.26s-.72-3.92-2.18-5.26c-1.35-1.24-3.35-2.41-5.26-2.18-14.87,1.81-29.73,3.62-44.6,5.43-2.04.25-3.75.67-5.26,2.18-1.29,1.29-2.26,3.41-2.18,5.26s.72,3.92,2.18,5.26c1.35,1.24,3.35,2.41,5.26,2.18h0Z"/>
  <path class="cls-1" d="m435.05,152.79c1.07,15.74,3.48,31.41,7.29,46.71.94,3.78,5.4,6.41,9.15,5.2s6.2-5.1,5.2-9.15c-2.29-9.21-4.07-18.54-5.34-27.94l.27,1.98c-.74-5.58-1.3-11.18-1.68-16.8-.26-3.88-3.23-7.63-7.44-7.44-3.81.17-7.72,3.28-7.44,7.44h0Z"/>
  <path class="cls-1" d="m414.05,186.8c-.48,1.9-1.1,3.75-1.86,5.55l.75-1.78c-.8,1.86-1.73,3.65-2.81,5.36-.54.85-.84,1.78-.88,2.77-.22.99-.18,1.98.13,2.97.48,1.73,1.81,3.6,3.42,4.45,1.73.91,3.82,1.37,5.73.75s3.38-1.73,4.45-3.42,2.01-3.5,2.81-5.36c1.03-2.4,1.97-4.8,2.61-7.33.48-1.9.25-4.03-.75-5.73-.9-1.54-2.67-3.02-4.45-3.42-1.9-.43-4.04-.34-5.73.75s-2.94,2.54-3.42,4.45h0Z"/>
  <path class="cls-1" d="m467.19,189.01c2.65,1.42,5.21,3.01,7.66,4.77.85.54,1.78.84,2.77.88.99.22,1.98.18,2.97-.13.97-.23,1.81-.67,2.53-1.33.81-.52,1.45-1.22,1.92-2.09.91-1.73,1.37-3.82.75-5.73l-.75-1.78c-.66-1.12-1.55-2.01-2.67-2.67-2.44-1.76-5-3.35-7.66-4.77-.85-.54-1.78-.84-2.77-.88-.99-.22-1.98-.18-2.97.13-.97.23-1.81.67-2.53,1.33-.81.52-1.45,1.22-1.92,2.09-.91,1.73-1.37,3.82-.75,5.73l.75,1.78c.66,1.12,1.55,2.01,2.67,2.67h0Z"/>
  <path class="cls-1" d="m492.02,147.08c-1.06.01-2.1-.05-3.15-.18l1.98.27c-1.84-.27-3.6-.75-5.32-1.46l1.78.75c-.97-.42-1.91-.89-2.81-1.43-.45-.27-.88-.58-1.32-.87-.62-.45-.43-.31.56.45-.2-.17-.41-.33-.6-.51-.77-.68-1.41-1.66-2.21-2.26.74.99.88,1.17.43.55-.15-.22-.3-.44-.44-.67-.28-.45-.52-.92-.75-1.41l.75,1.78c-.3-.73-.53-1.46-.66-2.23l.27,1.98c-.12-.87-.12-1.7-.01-2.57l-.27,1.98c.14-.87.36-1.68.68-2.5l-.75,1.78c.27-.63.58-1.24.96-1.82.79-1.22-.28.49-.39.44,0,0,.72-.8.76-.83.22-.22.46-.42.69-.63.62-.57-1.46.99-.4.34.68-.42,1.36-.8,2.09-1.13l-1.78.75c1.36-.57,2.76-.94,4.22-1.16l-1.98.27c1.72-.22,3.44-.22,5.17-.03l-1.98-.27c1.84.25,3.61.71,5.32,1.43l-1.78-.75c.84.37,1.65.78,2.43,1.27.23.14,1.63,1.17.53.31s.24.24.44.42c.28.27.56.55.82.84.18.19.35.39.51.59-.77-1.02-.93-1.23-.49-.61.46.75.9,1.49,1.26,2.3l-.75-1.78c.48,1.16.82,2.35,1.01,3.59l-.27-1.98c.14,1.11.15,2.21.03,3.33l.27-1.98c-.14.98-.37,1.92-.73,2.85l.75-1.78c-.26.6-.54,1.19-.9,1.74-.69,1.05.22-.44.46-.55-.19.09-.54.59-.69.75-.2.2-.42.38-.63.57-.64.58,1.55-1.07.55-.45-.58.36-1.16.69-1.79.96l1.78-.75c-.84.34-1.69.58-2.59.73l1.98-.27c-.89.12-1.76.12-2.66.01l1.98.27c-.67-.11-1.3-.27-1.93-.51l1.78.75-.31-.13c-1.92-.81-3.62-1.33-5.73-.75-1.73.48-3.6,1.81-4.45,3.42-.91,1.73-1.37,3.82-.75,5.73.55,1.71,1.69,3.71,3.42,4.45,2.41,1.02,4.66,1.76,7.33,1.75,1.98-.01,4.05-.36,5.9-1.1,4.25-1.71,8.15-4.63,10.05-8.93,1.98-4.48,2.49-9.34,1.08-14.09-1.33-4.48-4.02-8.25-7.7-11.08-6.77-5.23-16.88-7.03-24.9-3.73-4.49,1.85-8.58,4.85-10.68,9.37-2.38,5.12-2.5,10.41.02,15.52,2.08,4.22,6.13,7.83,10.19,10.1,4.36,2.43,9.35,3.75,14.35,3.69,3.89-.05,7.62-3.39,7.44-7.44s-3.27-7.49-7.44-7.44h0Z"/>
  <path class="cls-1" d="m503.89,180.55c3.17-.52,6.33-1.05,9.5-1.57.97-.23,1.81-.67,2.53-1.33.81-.52,1.45-1.22,1.92-2.09.54-.85.84-1.78.88-2.77.22-.99.18-1.98-.13-2.97-.58-1.8-1.7-3.54-3.42-4.45l-1.78-.75c-1.32-.35-2.64-.35-3.96,0-3.17.52-6.33,1.05-9.5,1.57-.97.23-1.81.67-2.53,1.33-.81.52-1.45,1.22-1.92,2.09-.54.85-.84,1.78-.88,2.77-.22.99-.18,1.98.13,2.97.58,1.8,1.7,3.54,3.42,4.45l1.78.75c1.32.35,2.64.35,3.96,0h0Z"/>
  <path class="cls-1" d="m527.71,144.7c1.87,13.94,4.72,27.67,8.85,41.13,1.14,3.72,5.25,6.46,9.15,5.2s6.42-5.17,5.2-9.15c-3.89-12.64-6.74-25.57-8.52-38.67l.27,1.98-.06-.48c-.28-2.06-.65-3.73-2.18-5.26-1.29-1.29-3.41-2.26-5.26-2.18s-3.92.72-5.26,2.18c-1.23,1.34-2.43,3.36-2.18,5.26h0Z"/>
  <path class="cls-1" d="m541.04,171.86c5.43-.12,10.93-1.03,16.06-2.81,1.84-.64,3.44-1.7,4.45-3.42.93-1.59,1.33-3.95.75-5.73s-1.7-3.54-3.42-4.45-3.85-1.41-5.73-.75c-2.94,1.02-5.96,1.74-9.04,2.16l1.98-.27c-1.67.22-3.35.35-5.04.38-1.94.04-3.88.8-5.26,2.18-1.29,1.29-2.26,3.41-2.18,5.26s.72,3.92,2.18,5.26,3.26,2.23,5.26,2.18h0Z"/>
  <path class="cls-1" d="m572.33,145.13c8.2-1.17,16.4-2.4,24.61-3.52l-1.98.27c.43-.04.83-.06,1.26-.04l-1.98-.27c.28.03.54.1.8.21l-1.78-.75c.86.46-.57-.49-.67-.57.82.66-.52-.72-.49-.71.32.1.91,1.34,1.06,1.59.63,1.03,1.16,2.12,1.63,3.22l-.75-1.78c1.36,3.3,2.24,6.81,2.75,10.34l-.27-1.98c.32,2.38.4,4.75.13,7.13l.27-1.98c-.23,1.7-.65,3.34-1.3,4.94l.75-1.78c-.46,1.07-1.02,2.06-1.66,3.03-.61.92.44-.62.47-.59.01.01-.46.53-.5.57-.44.47-.91.9-1.4,1.31-1.39,1.15-2.18,3.54-2.18,5.26,0,1.83.81,4.01,2.18,5.26s3.28,2.27,5.26,2.18,3.66-.86,5.26-2.18c8.66-7.15,8.91-19.55,6.48-29.57-1.18-4.85-3.07-9.56-6.13-13.53-1.35-1.75-3.01-3.12-5.16-3.78s-4.03-.44-6.22-.14c-2.54.35-5.08.72-7.61,1.09-5.6.8-11.19,1.6-16.79,2.4-1.71.25-3.62,2-4.45,3.42-.93,1.59-1.33,3.95-.75,5.73s1.7,3.54,3.42,4.45c1.89,1,3.64,1.05,5.73.75h0Z"/>
  <path class="cls-1" d="m629.8,157.95c10.43-2.59,20.87-5.17,31.3-7.76,3.78-.94,6.41-5.4,5.2-9.15s-5.1-6.2-9.15-5.2c-10.43,2.59-20.87,5.17-31.3,7.76-3.78.94-6.41,5.4-5.2,9.15s5.1,6.2,9.15,5.2h0Z"/>
  <path class="cls-1" d="m641.46,142.12c1.88,10.02,4.45,19.91,7.69,29.58,1.23,3.68,5.18,6.48,9.15,5.2,3.67-1.19,6.52-5.2,5.2-9.15-3.24-9.67-5.81-19.55-7.69-29.58-.72-3.83-5.55-6.36-9.15-5.2-4.1,1.33-5.97,5.05-5.2,9.15h0Z"/>
  <path class="cls-1" d="m642.66,148.6c-4.14,4.33-8.28,8.65-12.41,12.98-1.34,1.4-2.18,3.31-2.18,5.26,0,1.83.81,4.01,2.18,5.26s3.28,2.27,5.26,2.18,3.88-.74,5.26-2.18c4.14-4.33,8.28-8.65,12.41-12.98,1.34-1.4,2.18-3.31,2.18-5.26,0-1.83-.81-4.01-2.18-5.26s-3.28-2.27-5.26-2.18-3.88.74-5.26,2.18h0Z"/>
  <path class="cls-1" d="m677.05,129.86c.15,2.22.46,4.47,1.02,6.63s1.43,4.21,2.37,6.2c.47.87,1.11,1.56,1.92,2.09.72.66,1.56,1.1,2.53,1.33.99.31,1.98.35,2.97.13.99-.04,1.91-.34,2.77-.88,1.59-1.02,2.99-2.55,3.42-4.45l.27-1.98c0-1.34-.34-2.6-1.02-3.76-.17-.35-.33-.7-.48-1.06l.75,1.78c-.86-2.04-1.44-4.18-1.74-6.37l.27,1.98c-.07-.55-.13-1.1-.16-1.65.04-1.02-.17-1.98-.64-2.87-.3-.92-.81-1.72-1.54-2.39-.67-.73-1.47-1.24-2.39-1.54-.89-.47-1.84-.68-2.87-.64-1.92.09-3.92.72-5.26,2.18s-2.31,3.3-2.18,5.26h0Z"/>
  <path class="cls-1" d="m711.29,124.61c.33.7.65,1.4.96,2.11l-.75-1.78c1.49,3.59,2.54,7.33,3.09,11.17l-.27-1.98c.28,2.2.35,4.39.08,6.6l.27-1.98c-.22,1.5-.6,2.93-1.18,4.33l.75-1.78c-.38.85-.84,1.62-1.32,2.41-.72,1.18,1.19-1.24.2-.27-.38.37-.73.75-1.12,1.1-2.93,2.58-2.83,7.92,0,10.52,3.13,2.87,7.4,2.75,10.52,0,5.1-4.49,7.23-11.72,6.93-18.34s-2.35-13.46-5.29-19.63c-1.68-3.52-7-4.72-10.18-2.67-3.62,2.33-4.47,6.41-2.67,10.18h0Z"/>
  <path class="cls-1" d="m740.64,110.94c7.59-.19,14.67-3.74,21.76-6.08,6.84-2.25,13.78-4.21,20.78-5.89,3.79-.91,6.41-5.42,5.2-9.15-1.28-3.94-5.09-6.17-9.15-5.2-6.54,1.57-13.01,3.38-19.41,5.44-3.12,1.01-6.23,2.07-9.31,3.2s-6.24,2.37-9.55,2.88l1.98-.27c-.77.1-1.53.16-2.3.18-3.89.1-7.62,3.35-7.44,7.44s3.27,7.54,7.44,7.44h0Z"/>
  <path class="cls-1" d="m761.61,90.67c4.01,16.23,8.66,32.3,13.94,48.17,1.23,3.69,5.19,6.48,9.15,5.2,3.67-1.19,6.51-5.2,5.2-9.15-5.28-15.87-9.93-31.94-13.94-48.17-.93-3.78-5.4-6.41-9.15-5.2s-6.2,5.1-5.2,9.15h0Z"/>
  <path class="cls-1" d="m764.04,103.6c-5.06,8.05-10.12,16.11-15.18,24.16-2.07,3.3-.81,8.34,2.67,10.18,3.66,1.93,7.97.85,10.18-2.67,5.06-8.05,10.12-16.11,15.18-24.16,2.07-3.3.81-8.34-2.67-10.18-3.66-1.93-7.97-.85-10.18,2.67h0Z"/>
  <path class="cls-1" d="m286.44,128.61c6.83-1.86,13.77-3.26,20.78-4.2l-1.98.27c5.58-.73,11.19-1.18,16.82-1.32,3.89-.1,7.62-3.35,7.44-7.44s-3.27-7.55-7.44-7.44c-13.34.35-26.7,2.29-39.58,5.79-3.76,1.02-6.43,5.34-5.2,9.15s5.13,6.29,9.15,5.2h0Z"/>
  <path class="cls-1" d="m285.24,151.17c7.95,1.19,15.72,3.37,23.13,6.48l-1.78-.75c4.28,1.81,8.44,3.91,12.42,6.32,1.93,1.16,3.82,2.4,5.66,3.69.98.69,1.94,1.41,2.9,2.12.75.56-1.23-.98-.5-.39.22.18.44.35.66.52.5.4.99.8,1.47,1.2,1.56,1.29,3.17,2.18,5.26,2.18,1.83,0,4.01-.81,5.26-2.18,2.52-2.74,3.2-7.87,0-10.52-14.45-11.98-31.91-20.24-50.53-23.02-2.06-.31-3.87-.34-5.73.75-1.54.9-3.02,2.67-3.42,4.45-.43,1.9-.34,4.04.75,5.73.98,1.52,2.58,3.14,4.45,3.42h0Z"/>
  <path class="cls-1" d="m1.17,143.66c14.49-.96,29.05-.66,43.49.89,1.78.19,4.05-.97,5.26-2.18,1.29-1.29,2.26-3.41,2.18-5.26s-.72-3.92-2.18-5.26c-1.54-1.41-3.19-1.96-5.26-2.18-14.44-1.55-28.99-1.85-43.49-.89-3.88.26-7.63,3.24-7.44,7.44.17,3.81,3.28,7.72,7.44,7.44h0Z"/>
  <path class="cls-1" d="m5.07,180.3c14.75-2.43,29.5-4.86,44.25-7.28,1.73-.28,3.6-1.97,4.45-3.42.93-1.59,1.33-3.95.75-5.73s-1.7-3.54-3.42-4.45c-1.87-.99-3.65-1.09-5.73-.75-14.75,2.43-29.5,4.86-44.25,7.28-1.73.28-3.6,1.97-4.45,3.42-.93,1.59-1.33,3.95-.75,5.73s1.7,3.54,3.42,4.45c1.87.99,3.65,1.09,5.73.75h0Z"/>
</svg>